<svg width="86" height="86" viewBox="0 0 86 86" fill="none" xmlns="http://www.w3.org/2000/svg">
<path d="M0.34668 42.6543C0.34668 19.1601 19.3925 0.114258 42.8867 0.114258H85.4267V42.6543C85.4267 66.1485 66.3809 85.1943 42.8867 85.1943C19.3925 85.1943 0.34668 66.1485 0.34668 42.6543Z" fill="#BD1D1D"/>
<path d="M26.8467 76.8643V72.7393H41.2842V55.9643L18.5967 31.4893V27.3643H68.0967V31.4893L45.4092 55.9643V72.7393H59.8467V76.8643H26.8467ZM29.6654 37.333H57.0279L62.7342 31.7643H23.9592L29.6654 37.333ZM43.3467 52.183L53.2467 41.458H33.4467L43.3467 52.183Z" fill="white"/>
<path d="M58.0006 40.2796C59.5787 42.1178 61.7195 43.3835 64.0906 43.8804C66.4617 44.3773 68.9306 44.0775 71.1139 43.0276C73.2972 41.9777 75.0728 40.2363 76.1651 38.0739C77.2574 35.9115 77.6053 33.449 77.1548 31.0686C76.7043 28.6882 75.4805 26.5232 73.6735 24.9095C71.8665 23.2959 69.5773 22.3239 67.1613 22.1445C64.7454 21.965 62.3377 22.5882 60.3122 23.9173C58.2866 25.2463 56.7565 27.2068 55.9593 29.4946L58.6116 30.4188C59.2052 28.7152 60.3447 27.2553 61.853 26.2656C63.3614 25.2759 65.1542 24.8119 66.9533 24.9455C68.7524 25.0791 70.4571 25.8029 71.8027 27.0045C73.1483 28.2061 74.0596 29.8184 74.3951 31.5909C74.7306 33.3635 74.4715 35.1973 73.6581 36.8075C72.8447 38.4178 71.5224 39.7145 69.8966 40.4963C68.2708 41.2782 66.4323 41.5014 64.6667 41.1314C62.901 40.7614 61.3068 39.8188 60.1317 38.45L58.0006 40.2796Z" fill="white"/>
<rect x="24.3467" y="17.1143" width="2" height="31" rx="1" transform="rotate(-30 24.3467 17.1143)" fill="white"/>
</svg>
