<svg width="84" height="79" viewBox="0 0 84 79" fill="none" xmlns="http://www.w3.org/2000/svg">
<path d="M41.6734 0.945312C18.6614 0.945312 0 19.6067 0 42.6187C0 57.5828 7.92033 70.6665 19.761 78.0291V44.0848L43.2829 27.782L67.6017 44.0848V75.2083C77.1953 67.5749 83.3467 55.8139 83.3467 42.6187V0.945312H41.6734ZM76.271 43.4314C75.522 44.531 74.024 44.8179 72.9084 44.0689L43.5698 24.1485L14.6136 44.2601C14.1992 44.547 13.7052 44.6904 13.243 44.6904C12.4781 44.6904 11.7291 44.3238 11.251 43.6545C10.4861 42.5549 10.757 41.0569 11.8566 40.292L42.1674 19.2242C42.9801 18.6505 44.0638 18.6505 44.8925 19.2242L75.6176 40.0848C76.7172 40.8338 77.0041 42.3318 76.2551 43.4314" fill="#BD1D1D"/>
</svg>
