<svg width="86" height="85" viewBox="0 0 86 85" fill="none" xmlns="http://www.w3.org/2000/svg">
<path d="M43.9718 67.475C39.2546 67.5069 35.3184 71.3635 35.3184 76.0169C35.3184 80.7181 39.2387 84.5906 44.0196 84.5906C48.8323 84.5906 52.7686 80.75 52.7526 76.0647C52.7526 71.3157 48.8005 67.4432 43.9877 67.475M43.9558 80.9571C41.167 80.9093 38.9996 78.6942 39.0475 75.9213C39.0953 73.244 41.3423 71.0926 44.0992 71.1085C46.8881 71.1404 49.1032 73.3715 49.0554 76.1125C49.0076 78.8535 46.7447 81.0049 43.9399 80.9571" fill="#BD1D1D"/>
<path d="M60.2116 20.6382H28.5781C28.9447 22.678 33.1996 45.9609 35.112 56.8454C35.3829 58.3593 36.4984 59.3633 38.0602 59.3793C42.0921 59.4111 46.1239 59.4111 50.1558 59.3793C51.8769 59.3633 52.8809 58.439 53.1837 56.7498C54.0443 52.0645 59.9088 22.3912 60.2116 20.6541" fill="#BD1D1D"/>
<path d="M64.3716 46.4721C66.6983 40.8466 69.2799 37.6434 71.5748 32.0179C72.4194 29.9621 72.0688 28.0338 70.778 26.249C68.9612 23.7311 66.1564 23.747 63.3835 23.4761C61.6624 33.2131 59.7023 40.4801 57.9971 50.1693C60.5947 50.6315 63.3198 49.0219 64.3716 46.4881" fill="#BD1D1D"/>
<path d="M63.3835 23.4585C61.6624 33.1956 59.7023 40.4625 57.9971 50.1518C60.5947 50.6139 63.3198 49.0043 64.3716 46.4705C66.6983 40.845 69.2799 37.6418 71.5748 32.0163C72.4194 29.9605 72.0688 28.0322 70.778 26.2473C68.9612 23.7294 66.1564 23.7453 63.3835 23.4744" fill="#BD1D1D"/>
<path d="M28.5781 20.6382C28.9447 22.678 33.1996 45.9609 35.112 56.8454C35.3829 58.3593 36.4984 59.3633 38.0602 59.3793C42.0921 59.4111 46.1239 59.4111 50.1558 59.3793C51.8769 59.3633 52.8809 58.439 53.1837 56.7498C54.0443 52.0645 59.9088 22.3912 60.1957 20.6541H28.5781V20.6382Z" fill="#BD1D1D"/>
<path d="M43.0479 0.718262C19.5419 0.718262 0.498047 19.7621 0.498047 43.2681C0.498047 60.0968 10.2829 74.5829 24.4503 81.4833C24.4981 81.3558 24.4981 81.2124 24.5618 81.0849C27.0001 75.0291 29.2152 68.8936 31.4941 62.7741C31.6853 62.2482 31.9244 62.0729 32.4981 62.0729C33.3427 62.0729 34.1714 62.0729 35.016 62.0729C33.2311 61.1486 31.9403 59.539 31.5419 57.292C29.1993 43.9693 27.0957 33.0689 24.7531 19.7462C24.6096 18.8856 24.4662 18.0251 24.3228 17.1007H64.4981C64.3387 18.041 64.1794 18.9494 64.02 19.9215C65.0399 20.0649 65.9642 20.1924 66.9045 20.3039C73.3746 21.037 77.295 27.4912 74.8726 33.4354C72.5778 39.045 70.028 42.2323 67.7013 47.8259C66.1714 51.5231 62.6814 53.786 58.6017 53.8179C58.2192 53.8179 57.8368 53.8179 57.3746 53.8179C57.1834 54.9175 56.9762 55.9693 56.8009 57.0211C56.4025 59.4594 55.1116 61.1327 53.2471 62.0729C54.1873 62.0729 55.1435 62.0729 56.0838 62.0729C56.6097 62.0729 56.8646 62.2323 57.0399 62.7104C59.2551 68.6227 61.518 74.5032 63.7172 80.4156C76.7531 73.1486 85.5818 59.2363 85.5818 43.2522V0.718262H43.0479ZM64.275 16.033H24.6893C28.4662 11.6346 36.0519 8.63859 44.8009 8.63859C53.5499 8.63859 61.1196 11.6505 64.8965 16.033H64.275Z" fill="#BD1D1D"/>
</svg>
