<svg width="86" height="82" viewBox="0 0 86 82" fill="none" xmlns="http://www.w3.org/2000/svg">
<path d="M37.0081 34.744C36.9603 33.5968 36.0043 32.7046 34.8253 32.7046C33.6463 32.7046 32.6266 33.7561 32.6903 34.9192C32.7541 36.0504 33.7578 37.0064 34.889 36.9905C36.084 36.9586 37.0559 35.923 37.0081 34.744Z" fill="#BD1D1D"/>
<path d="M52.1906 36.9742C53.3536 37.0379 54.3415 36.1617 54.4211 34.9986C54.5008 33.7399 53.6564 32.7839 52.4136 32.7043C51.2027 32.6405 50.1831 33.5646 50.1512 34.7755C50.1193 35.9067 51.0434 36.9105 52.2065 36.9742" fill="#BD1D1D"/>
<path d="M49.4025 45.6893C51.4737 43.6818 51.4259 40.7821 49.275 38.8542C47.7933 37.5318 45.977 37.0379 44.0173 36.9583C42.0894 37.0857 40.2891 37.5796 38.8551 38.9817C36.7839 41.0051 36.8317 43.8571 38.9667 45.8168C41.7071 48.3182 46.7418 48.2545 49.3866 45.6893" fill="#BD1D1D"/>
<path d="M85.5068 42.8219V0.297852H42.9668C19.4821 0.297852 0.426758 19.3373 0.426758 42.8219C0.426758 57.7826 8.16999 70.927 19.8486 78.495C21.2028 78.0807 22.589 77.7461 23.8636 77.1407C24.6762 76.7583 25.7277 75.7705 25.7755 75.0217C25.9667 71.2775 25.8711 67.5333 25.8711 63.7255C25.0107 63.5661 24.246 63.5343 23.529 63.2953C21.2825 62.5464 18.9086 61.9888 16.8533 60.8735C14.7183 59.7104 13.9217 56.4443 14.7342 54.1659C15.3715 52.3655 17.14 51.3777 19.8486 51.4733C20.9798 51.5211 22.1269 51.7282 23.2104 52.0469C25.3931 52.6842 27.5281 52.6045 29.6153 51.8079C31.2244 51.1865 31.6068 49.9756 30.619 48.5895C28.3406 45.4349 27.305 41.8819 27.1298 38.0581C27.066 36.7994 26.6199 36.0028 25.409 35.3973C21.7605 33.581 19.9282 29.4863 20.8205 25.5032C21.6968 21.5519 24.3734 19.4329 28.1176 18.4451H30.7305C32.4831 19.4647 34.2198 20.5322 36.0201 21.4722C36.5141 21.7272 37.2629 21.8865 37.7409 21.6953C41.9949 20.0065 46.217 19.9427 50.5029 21.536C50.9649 21.7112 51.65 21.5997 52.0961 21.3607C53.8487 20.4366 55.5535 19.417 57.2742 18.4451H59.9031C60.3173 18.5725 60.7157 18.7 61.1299 18.8434C64.7147 20.0861 66.8816 22.6035 67.3436 26.3317C67.8057 29.9802 66.4992 33.0712 63.3127 34.999C61.9106 35.8434 61.5123 36.7835 61.5282 38.2652C61.5601 41.9775 60.397 45.3393 58.2461 48.3505C57.1149 49.9438 57.4335 51.1387 59.2817 51.9194C61.3211 52.7798 63.3923 52.6842 65.5273 52.1425C67.0409 51.7601 68.6341 51.5052 70.1796 51.5848C72.8563 51.7282 74.3539 53.7039 74.1946 56.3646C74.0034 59.4874 72.2827 61.4312 69.4308 62.3393C67.3117 63.0085 65.1131 63.3749 62.7391 63.9326C62.7391 67.2306 62.8188 70.5924 62.7072 73.9701C62.6435 75.8024 63.3127 76.7902 65.0652 77.3159C65.7185 77.5071 66.3717 77.7143 67.025 77.9214C78.1778 70.2578 85.4908 57.4162 85.4908 42.8538" fill="#BD1D1D"/>
<path d="M45.6759 57.4804C40.5934 56.7953 35.5268 60.0296 34.4275 65.0962C33.8858 67.6135 34.0929 70.2902 34.0451 72.9032C33.9973 75.9781 35.4631 78.2246 38.1557 79.6267C40.6571 80.9172 43.3656 81.22 46.122 80.8854C52.3038 80.1206 54.6778 77.3802 54.6778 71.1665V70.1787C54.6778 69.3661 54.6778 68.5376 54.6778 67.7251C54.6459 62.547 50.8221 58.1815 45.6918 57.4804" fill="#BD1D1D"/>
</svg>
